<svg xmlns="http://www.w3.org/2000/svg" viewBox="0 0 768 1152" role="img" aria-label="Silhouette portrait with brown hair and headphones">
	<defs>
		<style>
			.hair { fill: #6b4e2e; }          /* medium brown */
			.hair-shade { fill: #5a4127; }     /* darker shade for depth (optional) */
			.shirt { fill: #0a0a0a; }          /* near-black */
			.outline { fill: #111; }           /* outline shapes */
			.accent { fill: #222; }            /* small details */
			.bg { fill: #ffffff; }             /* background if needed */
		</style>
	</defs>

	<!-- Background (optional; remove if you need transparent) -->
	<rect class="bg" x="0" y="0" width="768" height="1152"/>

	<!-- Hair -->
	<path class="hair" d="M202 200c24-34 78-56 124-56 28 0 54 10 78 20 46 19 83 30 119 50 32 18 60 42 78 70 15 23 27 53 30 84 2 16-2 33-8 44-4 7-11 12-19 13-10 1-17-3-22-11-12-19-27-43-37-62-9-16-20-29-33-40-29-25-66-42-100-51-35-9-72-11-108-8-33 3-68 13-102 31 3-26 14-55 30-84z"/>
	<!-- Optional shadow in hair for depth -->
	<path class="hair-shade" d="M264 214c40-11 83-10 130 1 34 9 65 23 92 43 10 7 19 16 28 26-4-17-13-32-26-43-26-22-59-36-101-49-20-6-39-9-57-9-27 0-49 6-66 17z" opacity=".35"/>

	<!-- Headphones (outline style) -->
	<path class="outline" d="M520 331c34 24 55 73 54 117-1 35-14 59-36 59-20 0-29-18-33-43-8-44-8-99 1-133 2-8 7-13 14-16z"/>
	<path class="outline" d="M250 331c-34 24-55 73-54 117 1 35 14 59 36 59 20 0 29-18 33-43 8-44 8-99-1-133-2-8-7-13-14-16z"/>
	<rect class="accent" x="505" y="405" rx="18" ry="18" width="56" height="120"/>
	<rect class="accent" x="210" y="405" rx="18" ry="18" width="56" height="120"/>

	<!-- Neck / collar block (keep simple silhouette) -->
	<path class="outline" d="M292 650c0 92 118 127 198 127s110-43 106-88c-1-11-5-20-11-27-7-7-11-17-12-28l-12-151-62 76c-29 36-65 66-105 83-41 17-74 15-102 8z"/>

	<!-- Torso / shirt -->
	<path class="shirt" d="M36 1082c50-164 22-255 22-255-8-72 8-121 46-136 21-9 44 4 52 44 7 35 7 76 3 116-3 35-3 70 4 104 4 20 8 39 14 55 2-7 3-16 3-26-1-52-9-104 0-156 9-53 43-85 72-85 23 0 41 14 53 42 5-12 8-26 9-42 1-17 0-34 3-49 4-21 16-38 34-42 13-3 26 2 37 11 15 13 33 20 52 20s38-7 52-20c11-9 24-14 37-11 18 4 30 21 34 42 3 15 2 33 3 49 1 16 4 30 9 42 12-28 30-42 53-42 29 0 63 32 72 85 9 52 1 104 0 156-1 10 1 19 3 26 6-16 10-35 14-55 7-34 7-69 4-104-4-40-4-81 3-116 8-40 31-53 52-44 38 15 54 64 46 136 0 0-28 91 22 255H36z"/>

	<!-- Hands (minimal silhouette accents) -->
	<path class="outline" d="M58 848c-22-10-41-7-49 21-8 26-26 93 6 171 8 19 13 40 16 61 20-53 22-108 18-163-1-18 2-34 9-49z"/>
	<path class="outline" d="M713 846c22-10 41-7 49 21 8 26 26 93-6 171-8 19-13 40-16 61-20-53-22-108-18-163 1-18-2-34-9-49z"/>
</svg>